<svg width="30" height="19" viewBox="0 0 30 19" fill="none" xmlns="http://www.w3.org/2000/svg">
<path d="M1.86426 8.45254C1.19731 8.45254 0.656646 8.99321 0.656646 9.66016C0.656646 10.3271 1.19731 10.8678 1.86426 10.8678V8.45254ZM29.29 10.5141C29.7616 10.0425 29.7616 9.27785 29.29 8.80625L21.6048 1.12105C21.1332 0.649451 20.3686 0.649451 19.897 1.12105C19.4254 1.59265 19.4254 2.35727 19.897 2.82887L26.7283 9.66016L19.897 16.4914C19.4254 16.963 19.4254 17.7277 19.897 18.1993C20.3686 18.6709 21.1332 18.6709 21.6048 18.1993L29.29 10.5141ZM1.86426 10.8678H28.4361V8.45254H1.86426V10.8678Z" fill="white"/>
</svg>
