<svg width="28" height="27" viewBox="0 0 28 27" fill="none" xmlns="http://www.w3.org/2000/svg">
<path d="M13.2279 1.6128C13.5347 0.668678 14.8704 0.668678 15.1771 1.6128L17.6536 9.23463C17.7908 9.65685 18.1843 9.94272 18.6282 9.94272H26.6423C27.635 9.94272 28.0477 11.213 27.2446 11.7965L20.7611 16.5071C20.4019 16.768 20.2516 17.2306 20.3888 17.6528L22.8653 25.2746C23.1721 26.2187 22.0915 27.0038 21.2884 26.4203L14.8049 21.7098C14.4457 21.4488 13.9593 21.4488 13.6002 21.7098L7.11666 26.4203C6.31354 27.0038 5.23296 26.2187 5.53972 25.2746L8.0162 17.6528C8.15339 17.2306 8.0031 16.768 7.64394 16.5071L1.16042 11.7965C0.357305 11.213 0.770052 9.94272 1.76276 9.94272H9.77683C10.2208 9.94272 10.6142 9.65685 10.7514 9.23463L13.2279 1.6128Z" fill="#FFBE30"/>
</svg>
