<svg width="25" height="12" viewBox="0 0 25 12" fill="none" xmlns="http://www.w3.org/2000/svg">
<path d="M0.517916 6.85675C0.313164 7.23275 0.451991 7.70355 0.827995 7.9083C1.204 8.11305 1.67479 7.97422 1.87954 7.59822L0.517916 6.85675ZM7.31882 1.07086L7.48387 1.8283L7.31882 1.07086ZM16.839 10.3058L16.737 9.53732L16.839 10.3058ZM24.5536 1.07086L16.8231 5.58382L24.5967 10.0221L24.5536 1.07086ZM1.19873 7.22748C1.87954 7.59822 1.87949 7.59833 1.87944 7.59842C1.87944 7.59842 1.8794 7.59848 1.8794 7.59849C1.87939 7.5985 1.87943 7.59842 1.87952 7.59827C1.87969 7.59795 1.88004 7.59731 1.88057 7.59635C1.88162 7.59443 1.88339 7.59121 1.88586 7.58675C1.89079 7.57783 1.89852 7.56391 1.90896 7.54532C1.92984 7.50812 1.96154 7.45222 2.00339 7.38012C2.08712 7.23584 2.21121 7.02706 2.37017 6.77359C2.6888 6.2655 3.144 5.58345 3.69175 4.88349C4.24145 4.18102 4.87177 3.47676 5.5382 2.91358C6.21199 2.34418 6.87313 1.96137 7.48387 1.8283L7.15378 0.313416C6.19447 0.522445 5.30557 1.08027 4.53746 1.72938C3.76199 2.38471 3.05854 3.17684 2.47073 3.92801C1.88097 4.68167 1.39492 5.41049 1.05666 5.94987C0.887186 6.22012 0.753935 6.44422 0.66243 6.60189C0.616658 6.68076 0.581276 6.7431 0.556972 6.7864C0.544818 6.80805 0.53543 6.82495 0.528893 6.83677C0.525625 6.84269 0.523069 6.84734 0.521236 6.85068C0.520319 6.85235 0.519583 6.85369 0.51903 6.85471C0.518753 6.85521 0.518521 6.85564 0.518336 6.85598C0.518243 6.85615 0.518138 6.85634 0.518092 6.85642C0.517998 6.8566 0.517916 6.85675 1.19873 7.22748ZM7.48387 1.8283C7.9378 1.72939 8.29722 1.77604 8.60647 1.9071C8.92752 2.04316 9.24236 2.29106 9.56062 2.66502C10.2164 3.43551 10.7566 4.57582 11.3553 5.86416C11.9278 7.09638 12.5558 8.46859 13.3741 9.47646C14.221 10.5196 15.3661 11.2833 16.941 11.0743L16.737 9.53732C15.8802 9.65105 15.2205 9.29083 14.5777 8.4992C13.9064 7.67234 13.3598 6.49902 12.7613 5.21085C12.1889 3.9788 11.5615 2.62385 10.7413 1.66015C10.3216 1.16702 9.82144 0.738088 9.21144 0.479574C8.58962 0.216057 7.90195 0.150395 7.15378 0.313416L7.48387 1.8283ZM16.941 11.0743C17.8994 10.947 18.7822 10.4712 19.562 9.85417C20.3451 9.23454 21.0669 8.43894 21.7091 7.60193L20.4791 6.65813C19.8831 7.43484 19.249 8.12471 18.5999 8.63832C17.9475 9.15457 17.3217 9.45971 16.737 9.53732L16.941 11.0743Z" fill="url(#paint0_linear_390_53)"/>
<defs>
<linearGradient id="paint0_linear_390_53" x1="-0.565718" y1="5" x2="27.0313" y2="6.11103" gradientUnits="userSpaceOnUse">
<stop stop-color="#9FB0FF"/>
<stop offset="0.441027" stop-color="#D2B0FF"/>
<stop offset="0.70085" stop-color="#A8A2FC"/>
<stop offset="1" stop-color="#859AFD"/>
</linearGradient>
</defs>
</svg>
